<?xml version="1.0" standalone="no"?>
<!DOCTYPE svg PUBLIC "-//W3C//DTD SVG 20010904//EN"
 "http://www.w3.org/TR/2001/REC-SVG-20010904/DTD/svg10.dtd">
<svg version="1.0" xmlns="http://www.w3.org/2000/svg"
 width="500.000000pt" height="500.000000pt" viewBox="0 0 500.000000 500.000000"
 preserveAspectRatio="xMidYMid meet">

<g transform="translate(0.000000,500.000000) scale(0.100000,-0.100000)"
fill="#000000" stroke="none">
<path d="M2390 3740 c0 -5 4 -10 9 -10 5 0 32 -16 61 -36 46 -32 54 -34 67
-21 13 12 10 18 -24 46 -27 23 -48 31 -75 31 -21 0 -38 -4 -38 -10z"/>
<path d="M2540 3725 c13 -14 32 -25 42 -25 17 0 18 1 2 25 -10 16 -26 25 -42
25 l-25 0 23 -25z"/>
<path d="M2615 3730 c3 -5 21 -10 38 -9 27 0 29 2 12 9 -28 12 -57 12 -50 0z"/>
<path d="M2295 3723 c-38 -9 -36 -20 7 -32 23 -7 58 -24 77 -37 61 -41 130
-26 72 15 -30 21 -118 62 -129 60 -4 -1 -16 -3 -27 -6z"/>
<path d="M2165 3667 l-40 -21 55 -7 c30 -4 84 -14 119 -23 44 -12 67 -14 74
-7 6 6 9 12 6 13 -47 29 -147 69 -169 67 -3 0 -23 -10 -45 -22z"/>
<path d="M2698 3678 c9 -9 15 -9 24 0 9 9 7 12 -12 12 -19 0 -21 -3 -12 -12z"/>
<path d="M2749 3660 l-24 -19 22 -1 c26 0 73 20 73 32 0 16 -48 8 -71 -12z"/>
<path d="M2623 3663 c9 -2 25 -2 35 0 9 3 1 5 -18 5 -19 0 -27 -2 -17 -5z"/>
<path d="M2540 3643 c0 -5 4 -14 9 -22 8 -12 12 -12 25 -2 23 19 20 31 -9 31
-14 0 -25 -3 -25 -7z"/>
<path d="M2808 3628 c-28 -10 -35 -22 -20 -32 5 -3 32 2 61 11 38 11 50 18 40
24 -18 11 -47 10 -81 -3z"/>
<path d="M2646 3621 c5 -5 28 -11 52 -13 37 -3 41 -2 26 9 -20 15 -94 18 -78
4z"/>
<path d="M2067 3606 c-15 -12 -10 -14 43 -20 33 -4 83 -15 112 -25 44 -15 59
-16 88 -6 33 11 34 12 14 23 -21 11 -184 42 -219 42 -11 -1 -28 -7 -38 -14z"/>
<path d="M2475 3600 c-20 -22 -19 -25 11 -34 29 -9 52 18 34 39 -16 20 -23 19
-45 -5z"/>
<path d="M2595 3601 c-3 -6 -16 -11 -28 -11 -18 -1 -16 -3 11 -15 43 -19 47
-19 47 7 0 23 -19 35 -30 19z"/>
<path d="M2400 3588 c-22 -10 -23 -12 -6 -15 10 -3 26 2 34 11 19 18 8 20 -28
4z"/>
<path d="M2660 3579 c0 -5 11 -9 24 -9 13 0 39 -3 57 -6 19 -4 31 -4 28 0 -10
11 -109 24 -109 15z"/>
<path d="M2847 3578 c-22 -8 -26 -13 -16 -24 8 -10 34 -14 87 -14 l75 0 -23
25 c-26 27 -71 32 -123 13z"/>
<path d="M1991 3536 l-24 -26 69 -1 c38 0 90 -4 117 -8 36 -6 52 -4 69 7 21
15 21 16 -18 29 -21 8 -73 16 -114 20 -71 5 -76 4 -99 -21z"/>
<path d="M2438 3539 c-22 -12 -23 -29 -4 -29 8 0 22 -7 30 -16 15 -14 17 -14
23 2 6 17 -6 46 -23 51 -5 1 -17 -2 -26 -8z"/>
<path d="M2527 3543 c-16 -15 -5 -31 24 -35 21 -3 33 0 36 10 9 23 -42 44 -60
25z"/>
<path d="M2315 3524 l-40 -14 54 5 c30 2 59 9 65 15 15 15 -30 12 -79 -6z"/>
<path d="M2632 3531 c-10 -6 -7 -12 11 -24 23 -15 26 -15 31 -1 11 29 -13 44
-42 25z"/>
<path d="M2710 3532 c0 -5 21 -13 47 -17 26 -4 61 -14 78 -23 27 -14 29 -14
17 1 -21 24 -142 58 -142 39z"/>
<path d="M2895 3511 c-19 -8 -19 -9 5 -19 31 -12 150 -21 150 -11 0 25 -115
47 -155 30z"/>
<path d="M2335 3459 c-9 -17 -15 -33 -13 -35 9 -8 48 9 48 21 0 8 3 20 6 29
12 30 -25 17 -41 -15z"/>
<path d="M2596 3482 c-6 -11 21 -52 35 -52 17 0 5 55 -13 58 -9 2 -19 -1 -22
-6z"/>
<path d="M2730 3476 c25 -24 190 -103 190 -91 0 33 -123 105 -178 105 -23 0
-24 -2 -12 -14z"/>
<path d="M1925 3454 c-9 -14 -15 -27 -13 -28 2 -2 50 2 108 8 169 18 171 43 4
45 -77 1 -83 0 -99 -25z"/>
<path d="M2217 3466 c-38 -14 -81 -45 -73 -54 10 -9 82 22 103 44 25 27 22 28
-30 10z"/>
<path d="M2502 3468 c-19 -19 -15 -23 26 -23 26 0 37 5 37 15 0 19 -46 25 -63
8z"/>
<path d="M2676 3473 c-12 -13 -5 -31 14 -36 15 -4 20 0 20 13 0 18 -23 34 -34
23z"/>
<path d="M2407 3464 c-13 -14 -7 -34 11 -34 10 0 24 -6 31 -12 10 -11 12 -7 9
17 -2 21 -9 31 -23 33 -12 2 -24 0 -28 -4z"/>
<path d="M2282 3453 c-7 -3 -17 -13 -22 -24 -8 -15 -7 -19 4 -19 9 0 20 9 26
21 13 23 11 28 -8 22z"/>
<path d="M2910 3452 c0 -18 35 -39 84 -51 27 -7 65 -19 84 -27 44 -18 49 -13
26 24 -18 32 -52 46 -141 57 -31 4 -53 3 -53 -3z"/>
<path d="M2730 3417 c0 -9 14 -17 33 -21 17 -3 56 -17 86 -31 78 -37 74 -24
-6 17 -88 46 -113 54 -113 35z"/>
<path d="M2492 3399 c-17 -26 -14 -29 21 -22 18 4 27 12 27 24 0 26 -32 24
-48 -2z"/>
<path d="M2568 3395 c-5 -22 -3 -25 16 -19 28 9 29 11 23 29 -10 24 -34 18
-39 -10z"/>
<path d="M2650 3400 c-10 -18 -8 -20 20 -20 19 0 34 -7 42 -20 7 -11 20 -20
30 -20 22 0 176 -59 184 -71 3 -5 12 -9 21 -9 47 0 -66 67 -168 100 -37 11
-75 30 -84 41 -23 24 -32 24 -45 -1z"/>
<path d="M1976 3399 c-86 -9 -100 -16 -114 -59 l-10 -28 71 30 c40 17 94 33
121 37 27 3 51 12 54 19 4 13 -3 14 -122 1z"/>
<path d="M2335 3380 c-14 -16 -15 -20 -4 -20 16 0 39 19 39 32 0 14 -16 9 -35
-12z"/>
<path d="M2403 3393 c-7 -2 -13 -13 -13 -24 0 -22 0 -22 35 -9 23 9 25 13 15
25 -13 16 -17 17 -37 8z"/>
<path d="M2260 3371 c-12 -24 -13 -31 -1 -31 12 0 41 29 41 41 0 17 -29 9 -40
-10z"/>
<path d="M2112 3358 c-18 -11 -31 -22 -29 -24 10 -10 65 10 75 27 16 25 -2 24
-46 -3z"/>
<path d="M2203 3368 c-21 -10 -38 -36 -29 -45 9 -9 44 17 49 37 3 11 4 20 4
19 -1 0 -12 -5 -24 -11z"/>
<path d="M2952 3369 c5 -14 19 -23 98 -59 25 -12 60 -31 79 -42 l34 -22 -7 30
c-9 35 -25 48 -90 73 -78 29 -119 36 -114 20z"/>
<path d="M1932 3315 c-41 -19 -77 -35 -82 -35 -9 0 -32 -61 -26 -68 3 -2 33
12 68 31 35 20 79 38 99 42 27 5 38 13 46 36 10 26 9 29 -10 29 -12 0 -55 -16
-95 -35z"/>
<path d="M2495 3340 c-4 -7 -19 -9 -36 -5 -24 5 -31 3 -40 -18 -10 -21 -7 -33
17 -77 29 -54 51 -73 123 -110 36 -18 48 -20 66 -10 12 6 37 10 56 8 33 -3 34
-2 37 37 4 54 -28 86 -89 89 -23 1 -44 7 -47 14 -4 13 29 21 73 19 27 -2 30 1
33 31 3 27 0 32 -17 32 -12 0 -20 -3 -20 -7 5 -31 -2 -35 -24 -14 -27 25 -57
19 -57 -10 0 -27 -28 -24 -32 3 -3 25 -32 36 -43 18z m195 -145 c10 -12 10
-18 0 -30 -7 -8 -18 -15 -25 -15 -7 0 -18 7 -25 15 -10 12 -10 18 0 30 7 8 18
15 25 15 7 0 18 -7 25 -15z"/>
<path d="M2331 3327 c-14 -17 -4 -27 26 -27 26 0 32 25 7 34 -21 8 -20 8 -33
-7z"/>
<path d="M2720 3300 c0 -13 7 -20 19 -20 28 0 35 17 12 29 -27 15 -31 14 -31
-9z"/>
<path d="M2960 3312 c0 -16 18 -30 75 -62 33 -19 81 -49 106 -67 l46 -33 -5
26 c-3 18 -22 37 -57 60 -60 38 -165 87 -165 76z"/>
<path d="M2083 3294 c-17 -7 -34 -18 -38 -24 -9 -14 -7 -13 49 15 52 26 44 33
-11 9z"/>
<path d="M1903 3218 c-32 -18 -66 -38 -75 -43 -10 -6 -20 -30 -24 -55 l-7 -45
59 51 c32 28 72 59 87 69 15 10 32 26 38 36 15 28 -9 24 -78 -13z"/>
<path d="M3010 3227 c0 -3 17 -16 38 -28 20 -13 61 -45 90 -73 32 -30 52 -43
52 -34 0 9 -19 31 -42 50 -45 36 -138 94 -138 85z"/>
<path d="M1800 3021 c0 -17 176 -148 186 -139 2 3 -20 21 -49 41 -29 20 -68
52 -87 72 -34 35 -50 43 -50 26z"/>
<path d="M3120 2972 c-121 -101 -125 -105 -113 -109 13 -5 124 48 162 76 17
13 22 25 19 52 l-3 36 -65 -55z"/>
<path d="M2364 2989 c-4 -7 -21 -9 -45 -5 -32 5 -39 3 -44 -15 -18 -56 26
-109 92 -109 31 0 43 -4 43 -14 0 -11 -15 -16 -52 -18 -51 -3 -53 -4 -53 -33
0 -20 5 -31 18 -33 12 -2 17 3 17 17 0 25 13 27 30 6 19 -23 47 -18 54 10 7
26 26 35 26 12 0 -7 6 -22 14 -32 12 -17 16 -18 31 -5 10 8 30 13 46 12 83 -9
32 123 -71 185 -56 34 -94 41 -106 22z m-7 -45 c9 -23 -25 -48 -44 -33 -7 6
-13 20 -13 30 0 24 48 26 57 3z"/>
<path d="M1810 2950 c0 -6 4 -20 10 -30 11 -21 154 -106 196 -116 29 -7 29 -7
10 14 -10 12 -40 33 -68 47 -27 14 -71 42 -98 61 -28 20 -50 31 -50 24z"/>
<path d="M3111 2873 c-24 -15 -65 -32 -90 -39 -35 -8 -51 -19 -65 -44 l-19
-32 34 7 c27 6 176 69 185 78 8 8 15 57 8 57 -5 -1 -29 -13 -53 -27z"/>
<path d="M1833 2856 c4 -10 7 -24 7 -32 0 -16 75 -56 148 -77 44 -14 52 -14
52 -2 0 8 -33 30 -75 49 -41 19 -90 45 -107 57 -27 20 -31 20 -25 5z"/>
<path d="M2040 2851 c0 -21 133 -90 205 -107 17 -3 40 -16 52 -27 23 -21 53
-17 53 6 0 10 -8 13 -24 10 -16 -3 -28 2 -37 15 -8 10 -41 27 -73 36 -33 10
-86 31 -118 47 -32 16 -58 25 -58 20z"/>
<path d="M2913 2836 c-56 -29 -63 -37 -19 -24 20 6 43 20 53 30 20 22 18 22
-34 -6z"/>
<path d="M2261 2843 c-1 -7 -8 -13 -16 -13 -19 0 -20 -19 0 -26 24 -9 32 -1
24 26 -4 14 -7 19 -8 13z"/>
<path d="M2620 2798 c0 -14 6 -19 23 -16 12 2 22 10 22 18 0 9 -10 15 -22 16
-16 1 -23 -4 -23 -18z"/>
<path d="M3088 2780 c-48 -26 -147 -52 -170 -44 -13 4 -18 0 -18 -12 0 -15 10
-16 93 -11 104 6 123 11 130 35 3 9 8 25 12 35 9 22 -1 21 -47 -3z"/>
<path d="M2780 2771 c-13 -26 -13 -31 5 -31 12 0 35 28 35 44 0 14 -30 4 -40
-13z"/>
<path d="M2871 2772 c-19 -9 -37 -23 -39 -30 -5 -15 72 20 83 38 9 15 -5 12
-44 -8z"/>
<path d="M2130 2744 c67 -39 112 -55 129 -48 10 3 -18 18 -74 40 -49 19 -92
34 -95 34 -3 0 15 -12 40 -26z"/>
<path d="M2585 2760 c-3 -5 -15 -10 -27 -10 -17 0 -18 -2 -8 -15 21 -25 50
-19 50 10 0 27 -5 31 -15 15z"/>
<path d="M2701 2748 c-5 -13 -8 -24 -6 -26 6 -7 37 12 46 29 8 16 6 19 -11 19
-12 0 -24 -9 -29 -22z"/>
<path d="M1877 2741 c13 -49 50 -69 144 -77 73 -7 73 -7 55 12 -11 10 -61 33
-111 50 -75 24 -91 27 -88 15z"/>
<path d="M2072 2743 c28 -58 37 -68 86 -90 58 -25 114 -31 107 -10 -3 7 -32
23 -65 35 -32 13 -75 34 -95 48 -20 13 -35 21 -33 17z"/>
<path d="M2408 2742 c-20 -4 -24 -37 -7 -48 15 -9 31 10 27 33 -2 11 -10 17
-20 15z"/>
<path d="M2630 2730 c0 -11 4 -20 10 -20 5 0 14 9 20 20 9 17 8 20 -10 20 -13
0 -20 -7 -20 -20z"/>
<path d="M2478 2733 c-20 -5 -24 -28 -8 -38 13 -8 40 13 40 31 0 14 -3 15 -32
7z"/>
<path d="M2810 2694 c-25 -9 -53 -26 -62 -39 -18 -23 -18 -24 10 -15 47 14 78
31 90 51 7 10 11 19 10 18 -2 0 -23 -7 -48 -15z"/>
<path d="M2530 2682 c0 -41 54 -58 65 -21 8 25 8 25 -32 32 -27 5 -33 3 -33
-11z"/>
<path d="M2698 2676 c-6 -29 16 -25 33 5 8 16 6 19 -9 19 -13 0 -21 -9 -24
-24z"/>
<path d="M2354 2676 c-9 -24 3 -46 26 -46 26 0 26 22 0 45 -18 16 -20 16 -26
1z"/>
<path d="M2638 2678 c-17 -15 -31 -58 -17 -58 13 0 49 42 49 57 0 16 -12 17
-32 1z"/>
<path d="M2955 2683 c-73 -4 -105 -14 -105 -33 0 -12 122 -23 166 -15 24 4 46
16 57 31 18 24 18 24 -10 22 -15 -1 -64 -4 -108 -5z"/>
<path d="M2284 2665 c3 -9 6 -19 6 -21 0 -2 7 -4 16 -4 22 0 13 34 -10 38 -14
3 -17 0 -12 -13z"/>
<path d="M2430 2649 c0 -25 41 -26 64 0 16 18 15 19 -24 19 -33 1 -40 -3 -40
-19z"/>
<path d="M1955 2620 c15 -17 31 -20 94 -20 64 0 73 2 61 14 -9 8 -49 16 -94
20 -79 6 -79 6 -61 -14z"/>
<path d="M2504 2619 c-3 -5 -2 -18 1 -29 8 -25 51 -27 64 -2 8 15 4 19 -25 28
-19 6 -37 7 -40 3z"/>
<path d="M2155 2612 c16 -15 76 -32 109 -31 28 1 27 2 -14 13 -87 24 -105 28
-95 18z"/>
<path d="M2317 2606 c-9 -22 17 -38 43 -28 l22 8 -26 17 c-31 21 -32 21 -39 3z"/>
<path d="M2773 2614 c-47 -21 37 -54 136 -54 70 0 80 3 101 25 l23 25 -80 0
c-44 0 -100 2 -124 5 -24 2 -50 2 -56 -1z"/>
<path d="M2410 2591 c0 -21 22 -33 45 -25 22 9 18 31 -7 38 -34 9 -38 8 -38
-13z"/>
<path d="M2618 2593 c-10 -2 -18 -8 -18 -12 0 -8 89 5 98 14 6 6 -56 5 -80 -2z"/>
<path d="M2062 2571 l-64 -6 30 -22 c28 -21 36 -22 83 -13 29 6 55 12 57 15 8
7 -19 35 -32 33 -6 -1 -40 -4 -74 -7z"/>
<path d="M2680 2556 l-25 -14 30 -12 c16 -6 72 -17 125 -25 90 -13 96 -12 115
6 19 19 19 19 -26 19 -24 0 -69 7 -99 16 -87 24 -94 25 -120 10z"/>
<path d="M2363 2544 c-11 -28 13 -39 49 -21 27 14 29 17 11 17 -12 0 -25 5
-28 10 -9 15 -25 12 -32 -6z"/>
<path d="M2260 2540 c14 -4 36 -8 50 -8 l25 0 -25 8 c-14 4 -36 8 -50 8 l-25
0 25 -8z"/>
<path d="M2477 2543 c-4 -3 -7 -15 -7 -25 0 -24 32 -24 54 1 16 17 16 19 -6
25 -29 7 -33 7 -41 -1z"/>
<path d="M2565 2530 c-8 -13 15 -13 35 0 12 8 11 10 -7 10 -12 0 -25 -4 -28
-10z"/>
<path d="M2135 2505 c-49 -12 -50 -12 -24 -24 21 -10 32 -10 62 3 20 8 37 20
37 25 0 13 -9 12 -75 -4z"/>
<path d="M2266 2501 c15 -17 84 -27 84 -12 0 6 -6 11 -14 11 -7 0 -29 3 -47 6
-26 5 -31 4 -23 -5z"/>
<path d="M2422 2498 c-20 -20 -14 -38 12 -38 32 0 38 11 17 32 -13 14 -20 15
-29 6z"/>
<path d="M2610 2502 c0 -12 40 -33 109 -57 l65 -23 42 21 41 22 -67 12 c-36 6
-84 16 -106 22 -45 13 -84 14 -84 3z"/>
<path d="M2538 2483 c-28 -7 -21 -20 25 -47 74 -44 109 -54 146 -44 l35 10
-56 22 c-30 12 -69 32 -86 44 -31 22 -34 23 -64 15z"/>
<path d="M2196 2460 c-27 -17 -28 -20 -11 -26 20 -8 69 15 67 31 -2 17 -26 15
-56 -5z"/>
<path d="M2355 2450 c-18 -8 -17 -9 8 -9 16 -1 26 3 22 9 -3 6 -7 10 -8 9 -1
0 -11 -4 -22 -9z"/>
<path d="M2462 2441 c-10 -6 -3 -17 29 -45 23 -20 50 -36 58 -35 22 1 69 17
55 18 -7 1 -35 17 -63 36 -54 38 -59 39 -79 26z"/>
<path d="M2265 2430 c-4 -6 5 -10 20 -10 15 0 24 4 20 10 -3 6 -12 10 -20 10
-8 0 -17 -4 -20 -10z"/>
<path d="M2410 2410 c-13 -8 -12 -12 6 -31 12 -12 31 -19 43 -17 22 3 22 4 -6
30 -20 20 -32 25 -43 18z"/>
<path d="M2320 2386 c0 -2 14 -6 30 -8 17 -3 30 -1 30 4 0 4 -13 8 -30 8 -16
0 -30 -2 -30 -4z"/>
<path d="M1812 2165 c-57 -17 -130 -75 -193 -151 -48 -58 -53 -62 -73 -49 -33
21 -105 37 -136 30 -79 -17 -107 -101 -49 -150 18 -14 45 -29 60 -32 16 -3 29
-9 29 -13 0 -4 -21 -33 -46 -63 -46 -56 -94 -98 -127 -110 -10 -4 -15 -11 -12
-17 4 -7 12 -7 24 0 23 12 181 180 181 191 0 5 10 9 23 9 12 0 53 11 90 24
l68 24 77 -44 c75 -43 181 -88 188 -81 3 2 -48 34 -111 71 -63 37 -115 69
-115 72 0 2 21 15 48 28 77 39 166 111 191 156 28 50 22 84 -19 105 -34 18
-42 18 -98 0z m90 -32 c34 -31 23 -63 -45 -128 -35 -33 -89 -74 -121 -91 l-59
-32 -48 31 c-38 23 -46 33 -40 46 18 33 147 158 181 174 45 21 108 22 132 0z
m-406 -172 c23 -10 44 -23 47 -28 3 -4 -11 -30 -30 -56 -40 -54 -61 -58 -122
-27 -58 29 -69 75 -25 109 33 26 76 26 130 2z m117 -74 c9 -8 17 -17 17 -20 0
-8 -108 -39 -121 -35 -5 2 4 22 21 46 33 44 37 44 83 9z"/>
<path d="M2469 2132 c-86 -55 -199 -206 -199 -268 0 -25 -15 -40 -51 -49 -42
-10 -47 14 -10 44 17 14 31 32 31 39 0 25 -33 11 -76 -33 -53 -55 -88 -63 -49
-12 33 45 -15 63 -62 23 -27 -22 -86 -56 -98 -56 -3 0 2 11 11 25 39 59 -23
75 -80 21 -20 -18 -36 -41 -36 -50 0 -24 27 -31 58 -16 31 15 101 20 108 8 7
-11 78 -10 110 2 20 8 29 8 35 -1 4 -7 20 -9 45 -5 47 8 67 8 119 1 31 -5 51
-1 88 18 44 23 47 23 47 5 0 -25 25 -33 57 -19 22 10 19 3 -20 -41 -109 -123
-147 -170 -147 -184 0 -20 19 -18 26 4 15 45 36 73 133 174 104 109 127 144
56 88 -44 -35 -85 -40 -85 -11 0 10 7 24 15 31 8 7 15 17 15 22 0 5 -26 -9
-57 -32 -68 -47 -109 -58 -138 -36 -11 8 -18 16 -15 18 197 156 277 250 256
303 -8 23 -37 18 -87 -13z m71 -15 c0 -28 -20 -58 -79 -120 -54 -57 -160 -141
-168 -134 -9 9 17 79 48 127 69 110 199 193 199 127z m-570 -241 c0 -7 -6 -19
-14 -25 -19 -16 -32 5 -16 24 16 19 30 19 30 1z m250 9 c0 -2 -10 -10 -22 -16
-21 -11 -22 -11 -9 4 13 16 31 23 31 12z m-293 -32 c1 -30 -11 -43 -39 -43
-24 0 -23 19 4 47 28 30 33 29 35 -4z m173 15 c0 -18 -31 -48 -50 -48 -30 0
-31 13 -3 37 31 25 53 29 53 11z"/>
<path d="M3136 2135 c-28 -10 -77 -53 -173 -150 -74 -75 -167 -158 -205 -185
-39 -28 -67 -50 -62 -50 5 0 20 8 34 17 13 9 47 29 74 45 28 15 46 28 39 28
-20 0 250 265 285 279 42 17 78 3 93 -36 12 -31 -4 -240 -19 -255 -20 -20 -81
-20 -144 1 -82 27 -147 35 -178 22 -23 -10 -22 -10 10 -5 24 3 62 -5 125 -26
86 -30 120 -33 171 -13 8 3 14 -1 14 -11 0 -22 15 -20 32 5 12 18 17 20 35 10
28 -14 80 -13 118 3 26 11 32 10 42 -3 10 -14 15 -14 47 2 45 21 46 21 46 2 0
-29 56 -16 119 26 34 23 60 43 57 46 -2 2 -26 -12 -54 -31 -27 -20 -60 -37
-73 -38 -22 -3 -24 0 -24 42 0 42 -2 45 -25 42 -14 -1 -52 -20 -84 -42 -68
-46 -96 -53 -72 -18 38 54 3 73 -57 31 -61 -44 -75 -41 -66 16 13 75 10 204
-5 223 -22 29 -58 37 -100 23z m398 -254 c7 -11 -33 -47 -61 -55 -33 -10 -36
10 -6 38 28 26 57 34 67 17z m-174 -9 c0 -20 -33 -52 -54 -52 -35 0 -37 10 -8
36 26 23 62 32 62 16z"/>
<path d="M1957 1467 c-3 -8 1 -14 8 -14 7 0 11 6 8 14 -3 7 -6 13 -8 13 -2 0
-5 -6 -8 -13z"/>
<path d="M2088 1473 c7 -3 16 -2 19 1 4 3 -2 6 -13 5 -11 0 -14 -3 -6 -6z"/>
<path d="M2172 1445 c-2 -43 11 -65 38 -64 10 0 9 3 -5 8 -14 6 -22 21 -26 52
l-6 44 -1 -40z"/>
<path d="M2302 1428 l2 -53 3 47 c3 33 9 48 21 51 12 3 11 5 -5 6 -21 1 -23
-3 -21 -51z"/>
<path d="M2412 1445 c-2 -43 11 -65 38 -64 10 0 9 3 -5 8 -14 6 -22 21 -26 52
l-6 44 -1 -40z"/>
<path d="M2672 1473 c12 -3 18 -18 21 -51 l3 -47 2 47 c2 35 6 48 20 51 9 3
-1 5 -23 5 -22 0 -32 -2 -23 -5z"/>
<path d="M2842 1442 c-2 -34 -7 -44 -24 -52 -16 -6 -18 -9 -7 -9 26 -1 41 25
36 66 l-4 38 -1 -43z"/>
<path d="M2911 1428 c1 -29 4 -43 6 -30 5 25 13 28 32 10 11 -11 12 -10 7 0
-4 7 -2 19 4 27 16 19 -3 45 -31 45 -16 0 -19 -7 -18 -52z m44 22 c0 -8 -8
-16 -17 -18 -13 -2 -18 3 -18 18 0 15 5 20 18 18 9 -2 17 -10 17 -18z"/>
<path d="M3047 1474 c-3 -5 1 -15 9 -22 16 -14 18 -5 5 17 -5 7 -11 9 -14 5z"/>
<path d="M2053 1455 c-3 -9 -3 -18 -1 -21 3 -3 8 4 11 16 6 23 -1 27 -10 5z"/>
<path d="M2242 1445 c0 -16 2 -22 5 -12 2 9 2 23 0 30 -3 6 -5 -1 -5 -18z"/>
<path d="M2351 1453 c-1 -12 -7 -24 -13 -26 -10 -4 -10 -6 0 -6 15 -1 26 23
19 41 -3 7 -6 3 -6 -9z"/>
<path d="M2540 1462 c0 -4 10 -13 23 -21 22 -14 22 -14 3 8 -20 22 -26 25 -26
13z"/>
<path d="M1937 1421 c-4 -17 -3 -21 5 -13 5 5 8 16 6 23 -3 8 -7 3 -11 -10z"/>
<path d="M1981 1429 c-1 -8 6 -24 15 -35 15 -19 15 -19 6 1 -5 11 -12 27 -15
35 -5 13 -6 13 -6 -1z"/>
<path d="M3070 1425 c0 -5 5 -17 10 -25 5 -8 10 -10 10 -5 0 6 -5 17 -10 25
-5 8 -10 11 -10 5z"/>
<path d="M2050 1414 c0 -18 27 -36 47 -31 14 4 14 5 -4 6 -12 0 -27 9 -32 19
-6 9 -11 12 -11 6z"/>
<path d="M2580 1416 c0 -2 8 -10 18 -17 15 -13 16 -12 3 4 -13 16 -21 21 -21
13z"/>
<path d="M3016 1404 c-9 -24 -2 -26 12 -4 7 11 8 20 3 20 -5 0 -12 -7 -15 -16z"/>
</g>
</svg>
