<?xml version="1.0" standalone="no"?>
<!DOCTYPE svg PUBLIC "-//W3C//DTD SVG 20010904//EN"
 "http://www.w3.org/TR/2001/REC-SVG-20010904/DTD/svg10.dtd">
<svg version="1.0" xmlns="http://www.w3.org/2000/svg"
 width="190.000000pt" height="220.000000pt" viewBox="0 0 190.000000 220.000000"
 preserveAspectRatio="xMidYMid meet">
<metadata>
Created by potrace 1.16, written by Peter Selinger 2001-2019
</metadata>
<g transform="translate(0.000000,220.000000) scale(0.114458,-0.112245)"
fill="#000000" stroke="none">
<path d="M556 821 c-33 -34 -43 -39 -72 -34 -29 5 -35 2 -45 -21 -11 -23 -9
-29 9 -49 l22 -23 -30 -31 c-17 -17 -26 -34 -21 -37 5 -3 25 12 43 33 50 59
80 67 126 36 41 -28 57 -32 49 -11 -5 12 11 15 84 18 49 2 94 1 99 0 6 -2 -3
-19 -20 -38 -33 -38 -38 -54 -15 -54 8 0 15 6 15 13 0 8 16 35 36 61 36 45 41
72 9 46 -13 -11 -14 -10 -9 4 8 20 -9 21 -26 1 -7 -8 -17 -15 -23 -15 -6 0 3
15 20 33 53 56 67 97 33 97 -16 0 -19 -5 -15 -23 5 -17 -2 -30 -26 -52 l-33
-30 23 39 c30 52 19 58 -14 7 -15 -22 -31 -38 -36 -36 -4 3 -10 1 -14 -4 -3
-6 -12 -8 -20 -4 -9 3 -22 0 -30 -7 -10 -9 -15 -9 -15 -1 0 18 -29 13 -42 -8
-9 -15 -15 -17 -29 -8 -16 10 -14 13 17 34 52 36 60 103 11 103 -14 0 -38 -16
-61 -39z"/>
<path d="M1013 826 c-15 -13 -25 -28 -20 -32 4 -4 17 2 30 14 13 12 26 22 30
22 4 0 7 -25 7 -55 0 -48 -3 -55 -19 -55 -31 0 -73 19 -66 30 3 5 1 10 -5 10
-11 0 -80 -65 -80 -75 0 -11 17 -4 37 14 12 11 24 17 29 13 4 -4 4 1 1 11 -5
14 -2 14 24 -5 26 -20 40 -22 121 -20 68 2 97 7 110 19 23 21 16 28 -13 13
-19 -11 -21 -10 -16 4 7 19 -27 23 -39 5 -4 -8 -9 -7 -15 2 -7 11 -12 12 -28
2 -18 -11 -19 -9 -14 26 6 42 -10 81 -32 81 -8 0 -27 -11 -42 -24z"/>
</g>
</svg>
